<?xml version="1.0" encoding="utf-8"?>
<!-- Generator: Adobe Illustrator 21.1.0, SVG Export Plug-In . SVG Version: 6.00 Build 0)  -->
<svg version="1.1" id="Layer_1" xmlns="http://www.w3.org/2000/svg" xmlns:xlink="http://www.w3.org/1999/xlink" x="0px" y="0px"
	 viewBox="0 0 56.7 56.7" style="enable-background:new 0 0 56.7 56.7;" xml:space="preserve">
<path d="M56.6,10.9c-2.1,0.9-4.3,1.5-6.6,1.8c2.4-1.4,4.2-3.7,5.1-6.4c-2.2,1.3-4.7,2.3-7.3,2.8c-2.1-2.2-5.1-3.7-8.4-3.7
	c-6.4,0-11.6,5.2-11.6,11.6c0,0.9,0.1,1.8,0.3,2.6C18.3,19.2,9.8,14.5,4.1,7.5c-1,1.7-1.6,3.7-1.6,5.8c0,4,2,7.6,5.1,9.6
	c-1.9-0.1-3.7-0.6-5.2-1.4c0,0,0,0.1,0,0.1c0,5.6,4,10.3,9.3,11.3c-1,0.3-2,0.4-3,0.4c-0.7,0-1.5-0.1-2.2-0.2
	c1.5,4.6,5.7,7.9,10.8,8c-4,3.1-9,5-14.4,5c-0.9,0-1.9-0.1-2.8-0.2c5.1,3.3,11.2,5.2,17.7,5.2c21.3,0,32.9-17.6,32.9-32.9
	c0-0.5,0-1,0-1.5C53,15.2,55,13.2,56.6,10.9z"/>
</svg>
