<?xml version="1.0" encoding="utf-8"?>
<!-- Generator: Adobe Illustrator 21.1.0, SVG Export Plug-In . SVG Version: 6.00 Build 0)  -->
<svg version="1.1" id="Layer_1" xmlns="http://www.w3.org/2000/svg" xmlns:xlink="http://www.w3.org/1999/xlink" x="0px" y="0px"
	 viewBox="0 0 24 24" style="enable-background:new 0 0 24 24;" xml:space="preserve">
<g>
	<g>
		<path d="M5.2,23.9H0.1v-17h5.1V23.9z M24,23.9h-5.1v-9.1c0-2.4-0.8-3.5-2.5-3.5c-1.3,0-2.2,0.7-2.6,2c0,2.1,0,10.7,0,10.7H8.6
			c0,0,0.1-15.3,0-17h4l0.3,3.4h0.1c1-1.7,2.7-2.9,5-2.9c1.7,0,3.2,0.5,4.2,1.7c1.1,1.2,1.6,2.9,1.6,5.2V23.9z"/>
	</g>
	<g>
		<ellipse cx="2.7" cy="2.6" rx="2.6" ry="2.6"/>
	</g>
</g>
</svg>
